<svg width="100" height="100" viewBox="0 0 100 100" fill="none" xmlns="http://www.w3.org/2000/svg">
<path d="M50 100C63.2608 100 75.9785 94.7322 85.3553 85.3553C94.7322 75.9785 100 63.2608 100 50C100 36.7392 94.7322 24.0215 85.3553 14.6447C75.9785 5.26784 63.2608 0 50 0C36.7392 0 24.0215 5.26784 14.6447 14.6447C5.26784 24.0215 0 36.7392 0 50C0 63.2608 5.26784 75.9785 14.6447 85.3553C24.0215 94.7322 36.7392 100 50 100V100ZM14.4375 32.7688C14.2066 31.8472 14.1889 30.8851 14.3857 29.9557C14.5824 29.0262 14.9884 28.1539 15.5729 27.4049C16.1574 26.6559 16.9049 26.0501 17.7587 25.6334C18.6124 25.2166 19.55 25 20.5 25H37.5C39.1576 25 40.7473 25.6585 41.9194 26.8306C43.0915 28.0027 43.75 29.5924 43.75 31.25V31.975C45.7969 31.4848 47.8952 31.2414 50 31.25C52.1875 31.25 54.3125 31.5 56.25 31.975V31.25C56.25 29.5924 56.9085 28.0027 58.0806 26.8306C59.2527 25.6585 60.8424 25 62.5 25H79.5C80.45 25 81.3876 25.2166 82.2413 25.6334C83.0951 26.0501 83.8426 26.6559 84.4271 27.4049C85.0116 28.1539 85.4176 29.0262 85.6143 29.9557C85.8111 30.8851 85.7934 31.8472 85.5625 32.7688L83.6187 40.5313C82.9428 43.2355 81.3824 45.6362 79.1854 47.3518C76.9885 49.0675 74.2812 49.9996 71.4938 50H68.75C65.6085 50.0008 62.5818 48.8186 60.2724 46.6888C57.9631 44.5589 56.5404 41.6376 56.2875 38.5062C54.2647 37.8136 52.138 37.4733 50 37.5C47.5437 37.5 45.375 37.9 43.7125 38.5062C43.4596 41.6376 42.0369 44.5589 39.7275 46.6888C37.4182 48.8186 34.3915 50.0008 31.25 50H28.5125C25.7251 49.9996 23.0177 49.0675 20.8208 47.3518C18.6239 45.6362 17.0635 43.2355 16.3875 40.5313L14.4375 32.7688ZM31.0562 60.9375C32.9752 64.2637 35.7363 67.0258 39.0618 68.9458C42.3874 70.8659 46.16 71.8762 50 71.875C53.8411 71.8773 57.615 70.8675 60.9417 68.9474C64.2684 67.0273 67.0306 64.2646 68.95 60.9375C69.1537 60.5792 69.4262 60.2648 69.752 60.0123C70.0777 59.7598 70.4501 59.5742 70.8478 59.4662C71.2456 59.3582 71.6607 59.33 72.0694 59.3831C72.4781 59.4362 72.8722 59.5697 73.2292 59.7757C73.5861 59.9818 73.8987 60.2564 74.149 60.5838C74.3994 60.9112 74.5825 61.2849 74.6878 61.6833C74.7931 62.0817 74.8186 62.4971 74.7628 62.9054C74.707 63.3137 74.5709 63.707 74.3625 64.0625C71.8945 68.3397 68.3434 71.8914 64.0666 74.36C59.7898 76.8287 54.9382 78.1272 50 78.125C45.0618 78.1272 40.2102 76.8287 35.9334 74.36C31.6566 71.8914 28.1055 68.3397 25.6375 64.0625C25.2296 63.3451 25.1221 62.4956 25.3383 61.6992C25.5545 60.9028 26.0769 60.2243 26.7916 59.8116C27.5062 59.399 28.3551 59.2858 29.1529 59.4968C29.9507 59.7077 30.6327 60.2256 31.05 60.9375H31.0562Z" fill="white"/>
</svg>
