<svg width="108" height="108" viewBox="0 0 108 108" fill="none" xmlns="http://www.w3.org/2000/svg">
<g filter="url(#filter0_d)">
<path d="M103.108 94.819L88.4243 80.155V23.7407L81.4894 10.9248C80.9779 9.94768 80.2104 9.12959 79.2698 8.55888C78.3292 7.98816 77.2514 7.68651 76.1526 7.68651C75.0539 7.68651 73.976 7.98816 73.0354 8.55888C72.0949 9.12959 71.3274 9.94768 70.8158 10.9248L64.3031 23.771V56.038L9.15596 0.896253C8.73423 0.468968 8.19542 0.177562 7.60822 0.0591904C7.02103 -0.0591816 6.41206 0.000842625 5.85895 0.23161C5.30584 0.462378 4.83365 0.853433 4.50258 1.35492C4.17151 1.85641 3.99657 2.4456 4.00005 3.04739V27.5279H10.5429V32.3755H4.00005V51.766H10.5429V56.6137H4.00005V76.7616H10.5429V81.6093H4.00005V96.9702C4.00005 97.7737 4.31772 98.5444 4.88317 99.1125C5.44862 99.6807 6.21553 99.9999 7.0152 99.9999H100.967C101.566 100.003 102.153 99.8277 102.652 99.495C103.151 99.1623 103.54 98.6878 103.77 98.132C103.999 97.5762 104.059 96.9643 103.941 96.3743C103.823 95.7842 103.533 95.2428 103.108 94.819V94.819ZM28.1213 76.0042V48.5545L55.4687 76.0042H28.1213ZM82.394 82.397H70.3334V75.0347H82.394V82.397ZM82.394 70.2779H70.3334V25.2556L76.1828 13.8334L82.394 25.2859V70.2779Z" fill="white"/>
</g>
<defs>
<filter id="filter0_d" x="0" y="0" width="108" height="108" filterUnits="userSpaceOnUse" color-interpolation-filters="sRGB">
<feFlood flood-opacity="0" result="BackgroundImageFix"/>
<feColorMatrix in="SourceAlpha" type="matrix" values="0 0 0 0 0 0 0 0 0 0 0 0 0 0 0 0 0 0 127 0"/>
<feOffset dy="4"/>
<feGaussianBlur stdDeviation="2"/>
<feColorMatrix type="matrix" values="0 0 0 0 0 0 0 0 0 0 0 0 0 0 0 0 0 0 0.25 0"/>
<feBlend mode="normal" in2="BackgroundImageFix" result="effect1_dropShadow"/>
<feBlend mode="normal" in="SourceGraphic" in2="effect1_dropShadow" result="shape"/>
</filter>
</defs>
</svg>
