<svg width="108" height="85" viewBox="0 0 108 85" fill="none" xmlns="http://www.w3.org/2000/svg">
<circle cx="42.5" cy="42.5" r="42.5" fill="#D94230"/>
<path d="M53.0331 56.4809C44.7457 56.4809 41.638 65.8403 33.3507 70C25.0633 70 18.8478 57.5208 35.4225 22.1632H36.4584L38.2816 18.7106C38.2816 18.7106 49.9253 11.7638 55.4364 16.8803H77.5636C83.0747 11.7638 94.7184 18.7106 94.7184 18.7106L96.5416 22.1632H97.5775C114.152 57.5208 107.937 70 99.6493 70C91.362 65.8403 88.2543 56.4809 79.9669 56.4809H53.0331ZM66.5 20.0833C65.401 20.0833 64.3471 20.5215 63.57 21.3016C62.7929 22.0817 62.3563 23.1398 62.3563 24.243C62.3563 25.3462 62.7929 26.4043 63.57 27.1844C64.3471 27.9645 65.401 28.4027 66.5 28.4027C67.599 28.4027 68.6529 27.9645 69.43 27.1844C70.2071 26.4043 70.6437 25.3462 70.6437 24.243C70.6437 23.1398 70.2071 22.0817 69.43 21.3016C68.6529 20.5215 67.599 20.0833 66.5 20.0833Z" fill="black"/>
</svg>
